<?xml version="1.0" standalone="no"?>
<!DOCTYPE svg PUBLIC "-//W3C//DTD SVG 20010904//EN"
 "http://www.w3.org/TR/2001/REC-SVG-20010904/DTD/svg10.dtd">
<svg version="1.0" xmlns="http://www.w3.org/2000/svg"
 width="700.000000pt" height="700.000000pt" viewBox="0 0 700.000000 700.000000"
 preserveAspectRatio="xMidYMid meet">
<metadata>
Created by potrace 1.11, written by Peter Selinger 2001-2013
</metadata>
<g transform="translate(0.000000,700.000000) scale(0.100000,-0.100000)"
fill="#000000" stroke="none">
<path d="M3864 6912 c-16 -10 -97 -133 -198 -302 -48 -80 -91 -152 -97 -160
-5 -8 -33 -55 -63 -105 -73 -122 -513 -851 -806 -1335 -131 -217 -283 -469
-338 -560 -55 -91 -164 -271 -242 -400 -78 -129 -150 -248 -160 -265 -9 -16
-35 -60 -58 -97 -81 -132 -95 -168 -96 -239 -1 -54 3 -72 24 -101 13 -20 38
-44 54 -54 67 -39 110 -42 807 -43 371 0 681 -2 689 -4 89 -19 167 -74 202
-140 18 -33 22 -59 22 -122 -1 -68 -7 -98 -43 -200 -23 -66 -60 -169 -81 -230
-21 -60 -172 -490 -335 -955 -163 -465 -330 -939 -370 -1055 -40 -116 -80
-228 -89 -250 -18 -48 -52 -174 -52 -194 2 -29 28 -22 61 15 19 22 127 181
241 354 268 408 404 615 583 885 80 121 148 224 150 228 2 5 56 88 121 185
110 167 273 414 488 742 120 182 306 465 480 730 441 668 434 656 437 735 3
63 -15 106 -58 139 -70 54 -83 55 -962 54 -804 0 -810 0 -867 21 -63 24 -112
66 -149 126 -20 34 -24 53 -24 125 0 72 6 103 38 200 21 63 69 210 107 325 37
116 121 372 186 570 65 198 119 365 120 370 1 6 9 30 17 55 86 255 261 801
276 860 22 88 18 114 -15 92z"/>
</g>
</svg>
